<?xml version="1.0" encoding="utf-8"?>
<!-- Generator: Adobe Illustrator 18.0.0, SVG Export Plug-In . SVG Version: 6.00 Build 0)  -->
<!DOCTYPE svg PUBLIC "-//W3C//DTD SVG 1.1//EN" "http://www.w3.org/Graphics/SVG/1.1/DTD/svg11.dtd">
<svg version="1.1" id="Layer_1" xmlns="http://www.w3.org/2000/svg" xmlns:xlink="http://www.w3.org/1999/xlink" x="0px" y="0px"
	 viewBox="0 0 612 792" enable-background="new 0 0 612 792" xml:space="preserve">
<g>
	<g>
		<path d="M389.2,299.4c5.8,14.2,7.9,29.3,9,44.5c0.9,12.6,1,25.4-1.4,37.9c-2.3,12.1-7.3,23.4-16.3,32c-9,8.5-21.9,11.6-34,10.7
			c-29.7-2.3-42.6-34.3-45.5-59.8c-1.6-14.5-2.6-30.4,0.8-44.7c3.3-14.1,13.5-23.8,25.6-30.9c20.1-11.7,53.7-17.2,65.2,9
			c2.6,5.9,11.2,0.8,8.6-5c-4.9-11.1-15-18.4-26.3-22.1c-13.3-4.2-28.1-1.4-40.7,3.7c-12.2,4.9-23.8,12.2-32.2,22.5
			c-8.9,11-11.6,24.8-12.1,38.7c-1,27.7,2.4,58.2,20.9,80.1c16.4,19.4,44.1,23.5,66.3,12.2c20.7-10.5,28.8-33.9,31-55.5
			c1.2-12,0.6-24.1-0.5-36.1c-1.2-13.7-3.6-27.2-8.8-40C396.5,290.8,386.8,293.4,389.2,299.4L389.2,299.4z"/>
	</g>
</g>
<g>
	<g>
		<path d="M401.9,301.7c10.6-11.6,20.1-24,28.5-37.2c3.5-5.5-5.2-10.5-8.6-5c-8,12.5-17,24.3-27,35.2
			C390.5,299.4,397.6,306.5,401.9,301.7L401.9,301.7z"/>
	</g>
</g>
<g>
	<g>
		<path d="M434.3,241.2c-10.3,0.3-19.3,4.8-28.5,9.1c-10.7,5.1-21.5,10.1-32.2,15.2c-5.8,2.7-0.8,11.4,5,8.6
			c8.9-4.2,17.9-8.4,26.8-12.6c9.1-4.3,18.5-10,28.8-10.3C440.7,251,440.7,241,434.3,241.2L434.3,241.2z"/>
	</g>
</g>
<g>
	<g>
		<path d="M321.2,279.8c-12.1,1.6-23.4-1.7-34.6-5.9c-11.6-4.4-23.1-9.5-34.6-14.3c-3-1.2-6.5,1.8-6.3,4.8
			c0.6,12.2,8.5,24.4,14.8,34.6c6.2,10.1,14.4,19.2,25.2,24.3c5.8,2.7,10.9-5.9,5-8.6c-9.5-4.5-16.1-12.1-21.6-20.8
			c-2.8-4.3-5.2-8.9-7.5-13.4c-2.6-5.1-5.6-10.2-5.9-16.1c-2.1,1.6-4.2,3.2-6.3,4.8c11.5,4.8,23,9.8,34.6,14.3
			c11.8,4.6,24.5,8,37.2,6.3C327.5,289,327.6,279,321.2,279.8L321.2,279.8z"/>
	</g>
</g>
<g>
	<g>
		<path d="M351.2,365c1,11.9-1.9,25.4-10.3,34.4c-3.8,4.1-13.3,1.1-17.6-0.7c-5.7-2.4-10-7.4-9.9-13.7c0-6.5-10-6.4-10,0
			c-0.1,18.7,21,28.6,37.5,25.6c8.1-1.5,13.2-11.7,16-18.4c3.6-8.6,5.1-17.9,4.4-27.2C360.7,358.6,350.7,358.6,351.2,365L351.2,365z
			"/>
	</g>
</g>
<g>
	<g>
		<path d="M351.3,368c-1.3,15.9,1.6,34.5,18,41.1c6.8,2.7,15.1,2.5,22.3,2.2c6.9-0.4,13.7-2.8,16-9.8c2.1-6.1-7.6-8.7-9.6-2.7
			c-1.2,3.4-9.2,2.6-11.9,2.7c-4.8,0-9.5-0.4-14.1-1.9c-11.5-3.9-11.5-21.7-10.7-31.4C361.8,361.6,351.8,361.6,351.3,368L351.3,368z
			"/>
	</g>
</g>
<g>
	<g>
		<path d="M382,376.8c9,0.7,17.5-1.7,25.9-4.5c9.6-3.2,19.2-6.1,29-8.7c18.9-5.1,38.2-8.9,57.7-11.6c6.4-0.9,3.6-10.5-2.7-9.6
			c-18.8,2.6-37.4,6.3-55.8,11.1c-9.2,2.4-18.3,5.1-27.3,8c-8.8,2.8-17.4,6.1-26.8,5.3C375.5,366.3,375.6,376.3,382,376.8L382,376.8
			z"/>
	</g>
</g>
<g>
	<g>
		<path d="M391.7,390.9c30.3,5.2,61,7.1,91.7,8.8c6.4,0.4,6.4-9.6,0-10c-29.8-1.7-59.6-3.4-89-8.4
			C388.1,380.2,385.4,389.8,391.7,390.9L391.7,390.9z"/>
	</g>
</g>
<g>
	<g>
		<path d="M402.6,387.4c24.9-5.1,50.2-7.2,75.6-6.3c6.5,0.2,6.4-9.8,0-10c-26.3-0.9-52.5,1.4-78.2,6.7
			C393.7,379,396.4,388.7,402.6,387.4L402.6,387.4z"/>
	</g>
</g>
<g>
	<g>
		<path d="M328.4,367.9c-27.4-5.7-54.3-13-80.8-21.8c-6.1-2.1-8.7,7.6-2.7,9.6c26.5,8.9,53.5,16.2,80.8,21.8
			C332,378.9,334.7,369.3,328.4,367.9L328.4,367.9z"/>
	</g>
</g>
<g>
	<g>
		<path d="M323.2,377.3c-25.9-3.4-51.9-5.4-78-6c-6.5-0.1-6.4,9.9,0,10c26.1,0.6,52.1,2.6,78,6C329.5,388.1,329.5,378.1,323.2,377.3
			L323.2,377.3z"/>
	</g>
</g>
<g>
	<g>
		<path d="M324.9,390.4c-0.9,1.2-6.5,1-7.8,1.1c-3.2,0.3-6.4,0.7-9.7,1c-6.5,0.6-12.9,1.2-19.4,1.7c-12.9,1-25.9,1.7-38.8,2.1
			c-6.4,0.2-6.5,10.2,0,10c15.5-0.5,31.1-1.4,46.6-2.7c7.8-0.6,15.5-1.4,23.2-2.2c5.8-0.6,10.9-0.9,14.5-5.9
			C337.4,390.3,328.7,385.3,324.9,390.4L324.9,390.4z"/>
	</g>
</g>
<g>
	<g>
		<path d="M351.1,438c2.7,12,4.5,24.2,5.3,36.5c0.9,12,1.5,24.9-0.8,36.8c-2.3,12-11.5,21.2-19.6,29.7c-8.3,8.8-17.4,16.9-26.8,24.4
			c-5,4,2.1,11.1,7.1,7.1c9.9-7.9,19.3-16.5,28.1-25.7c8.7-9.1,17.3-18.8,20.6-31.2c3.4-12.4,2.3-26.6,1.6-39.3
			c-0.8-13.8-2.8-27.5-5.8-41C359.3,429,349.7,431.7,351.1,438L351.1,438z"/>
	</g>
</g>
<g>
	<g>
		<path d="M312.8,481.7c-1.9,7.4-0.7,14.5,1.1,21.8c2.1,8.3,3.2,16.3,4,24.8c1.6,17.4,2.5,35-2.4,51.9c-1.8,6.2,7.9,8.8,9.6,2.7
			c4.6-16,4.4-32.6,3.2-49c-0.6-8.1-1.2-16.3-2.7-24.3c-1.6-8.4-5.5-16.6-3.2-25.2C324.1,478.1,314.4,475.4,312.8,481.7L312.8,481.7
			z"/>
	</g>
</g>
<g>
	<g>
		<path d="M351.5,454.1c-8.8,29.8-48.8,27.8-73.2,28.1c-30.5,0.5-61.6-0.9-90.3-12c-22.6-8.7-43.1-25.1-54.4-46.7
			c-6.1-11.6-9.8-26.3-6.4-39.3c3.2-12.2,13.8-21,24.5-26.5c9.4-4.8,20.2-6.9,30.5-8.5c11.8-1.9,23.7-3.3,35.5-4.6
			c23.5-2.6,47.3-3.4,70.5,2c6.3,1.5,8.9-8.2,2.7-9.6c-31-7.2-62.8-3.9-94,0.2c-26.7,3.5-55,7.5-72.4,30.3c-16,21-7.2,51,6.4,70.8
			c13.7,20,34.7,34.2,57.2,42.5c31.6,11.7,66.3,11.9,99.5,11.1c27.6-0.6,64.2-3.6,73.6-35.3C362.9,450.6,353.3,447.9,351.5,454.1
			L351.5,454.1z"/>
	</g>
</g>
<g>
	<g>
		<path d="M128,378.6c-3.8-7.3-13.3-10.8-19.5-15.8c-7-5.7-13.3-12.3-18.8-19.5c-11.6-15.1-19.4-32.7-24.6-50.9
			c-5.9-20.1-8.4-41.1-9.8-62c-1.1-16.7,1.1-44.9,23.2-46.7c6.4-0.5,6.4-10.5,0-10c-21,1.8-31.3,21.3-33.2,40.2
			c-1.1,11.5,0.4,23.4,1.6,34.8c1.2,11.4,3,22.7,5.4,33.9c4.6,20.9,12.4,41.3,24.2,59.3c5.4,8.3,11.9,15.9,19,22.8
			c3.7,3.6,7.8,6.8,11.9,9.8c3.7,2.7,9.7,4.9,11.9,9.1C122.3,389.4,131,384.3,128,378.6L128,378.6z"/>
	</g>
</g>
<g>
	<g>
		<path d="M164.6,468.2c6.5,16.4,9.6,33.2,11.7,50.6c2.3,18.9,4.5,37.8,6.8,56.7c0.8,6.3,10.8,6.4,10,0c-2.3-18.9-4.5-37.8-6.8-56.7
			c-2.2-18.3-5.3-36-12.1-53.3C171.9,459.6,162.2,462.2,164.6,468.2L164.6,468.2z"/>
	</g>
</g>
<g>
	<g>
		<path d="M185.2,477.1c-2.9,30-16.1,59-9.4,89.5c1.4,6.3,11,3.6,9.6-2.7c-6.3-29,7-58.1,9.8-86.8
			C195.8,470.7,185.8,470.7,185.2,477.1L185.2,477.1z"/>
	</g>
</g>
<g>
	<g>
		<path d="M328.1,340.1c2.4,4.6,8.1,7,13.1,5.2c3-1.1,1.7-5.9-1.3-4.8c-2.9,1-6-0.1-7.4-2.9C330.9,334.8,326.6,337.3,328.1,340.1
			L328.1,340.1z"/>
	</g>
</g>
<g>
	<g>
		<path d="M345.5,339.5c0-1.3,0-2.7,0-4c0-1.4-1.1-2.5-2.5-2.5s-2.5,1.1-2.5,2.5c0,1.3,0,2.7,0,4c0,1.4,1.1,2.5,2.5,2.5
			S345.5,340.9,345.5,339.5L345.5,339.5z"/>
	</g>
</g>
<g>
	<g>
		<path d="M345.3,330.8c-1.4-3.3-5.5-5-8.9-4.2c-4.3,1-6.9,4.8-7.9,8.8c-0.8,3.1,4,4.4,4.8,1.3c0.5-2,1.4-3.8,3.2-4.9
			c1.7-1.1,3.8-0.2,4.5,1.5C342.3,336.3,346.6,333.7,345.3,330.8L345.3,330.8z"/>
	</g>
</g>
<g>
	<g>
		<path d="M337.5,340.5c3.2,0,3.2-5,0-5S334.3,340.5,337.5,340.5L337.5,340.5z"/>
	</g>
</g>
<g>
	<g>
		<path d="M362.5,342c0.1,5.3,6,5.1,8.7,1.8c3.5-4,4.8-9.7,4.2-14.9c-0.1-1.2-0.7-2-1.8-2.4c-4.8-1.6-10.8-2.1-13.5,3.2
			c-1.9,3.9-0.7,9.9,2.5,12.7c2.5,2.1,6-1.5,3.5-3.5c-1.8-1.5-2.1-4-1.8-6.3c0.5-3.8,5.7-2,7.8-1.3c-0.6-0.8-1.2-1.6-1.8-2.4
			c0.3,2.1,0.2,4.1-0.3,6.2c-0.3,1.1-0.7,2.1-1.2,3.1c-0.3,0.6-0.7,1.2-1,1.7c-0.8,0.5-1,1.2-0.4,2
			C367.5,338.7,362.5,338.7,362.5,342L362.5,342z"/>
	</g>
</g>
<g>
	<g>
		<path d="M366,338.5c3.2,0,3.2-5,0-5S362.8,338.5,366,338.5L366,338.5z"/>
	</g>
</g>
</svg>
