<?xml version="1.0" encoding="utf-8"?>
<!-- Generator: Adobe Illustrator 18.0.0, SVG Export Plug-In . SVG Version: 6.00 Build 0)  -->
<!DOCTYPE svg PUBLIC "-//W3C//DTD SVG 1.1//EN" "http://www.w3.org/Graphics/SVG/1.1/DTD/svg11.dtd">
<svg version="1.1" id="Layer_1" xmlns="http://www.w3.org/2000/svg" xmlns:xlink="http://www.w3.org/1999/xlink" x="0px" y="0px"
	 viewBox="0 0 612 792" enable-background="new 0 0 612 792" xml:space="preserve">
<g>
	<g>
		<path d="M144.3,296.7c-5.6,13.9-7.9,28.7-9.1,43.6c-1,12.7-1.3,25.6,0.5,38.3c3.5,24.4,16.2,46.5,40.9,54
			c25.1,7.6,49.6-4.9,62.9-26.3c7.4-12,10.6-25.9,12.4-39.7c1.8-14.5,2.3-29.6,0.1-44.1c-3.9-26.1-26.1-42.3-49.7-50.1
			c-21.8-7.2-50.3-2.2-60.4,20.8c-2.6,5.8,6,10.9,8.6,5c5.2-11.9,17-18.2,29.6-19c14.5-0.9,29.1,5.5,41,13.4
			c12.4,8.1,19.6,20.1,21.5,34.8c1.9,14.7,0.8,30.6-1.7,45.2c-4.4,26.3-20.8,52.5-50.2,52.3c-12.5-0.1-24-5.8-32.2-15.1
			c-8.1-9.2-11.7-21.9-13.2-33.8c-1.5-11.8-1-23.7-0.1-35.5c1.1-14,3.4-27.9,8.7-40.9C156.4,293.4,146.7,290.8,144.3,296.7
			L144.3,296.7z"/>
	</g>
</g>
<g>
	<g>
		<path d="M148.3,294.7c-10-11-19-22.7-27-35.2c-3.5-5.4-12.1-0.4-8.6,5c8.4,13.2,18,25.7,28.5,37.2
			C145.6,306.5,152.7,299.4,148.3,294.7L148.3,294.7z"/>
	</g>
</g>
<g>
	<g>
		<path d="M108.9,251.2c9.7,0.3,18.4,5.4,27,9.4c9.5,4.5,19.1,9,28.6,13.5c5.8,2.7,10.9-5.9,5-8.6c-10.1-4.8-20.3-9.6-30.4-14.3
			c-9.7-4.6-19.3-9.6-30.2-10C102.5,241,102.5,251,108.9,251.2L108.9,251.2z"/>
	</g>
</g>
<g>
	<g>
		<path d="M222,289.8c12.2,1.6,24.1-1.4,35.5-5.6c12.3-4.5,24.3-10,36.3-15c-2.1-1.6-4.2-3.2-6.3-4.8c-0.3,5.9-3.3,11-5.9,16.1
			c-2.3,4.6-4.8,9.1-7.5,13.4c-5.4,8.7-12.2,16.3-21.6,20.8c-5.8,2.8-0.7,11.4,5,8.6c10.9-5.2,18.8-14.3,25.2-24.3
			c6.4-10,14.2-22.4,14.8-34.6c0.1-3-3.4-6.1-6.3-4.8c-10.9,4.6-21.8,9.2-32.8,13.6c-11.6,4.7-23.7,8.3-36.3,6.6
			C215.7,279,215.7,289,222,289.8L222,289.8z"/>
	</g>
</g>
<g>
	<g>
		<path d="M182,365c-0.7,9.3,0.8,18.6,4.4,27.2c3.2,7.6,7.8,15.7,16,18.4c7.8,2.6,18.8-1,25.5-4.9c7.3-4.2,12-12.3,12-20.8
			c0-6.4-10-6.5-10,0c0,6.6-4.4,10.9-9.9,13.7c-4.5,2.2-13.5,4.4-17.6,0.7c-8.8-7.9-11.2-23.3-10.3-34.4
			C192.5,358.6,182.5,358.6,182,365L182,365z"/>
	</g>
</g>
<g>
	<g>
		<path d="M181.9,368c0.8,10.1,0.7,25.3-9.4,30.9c-4.1,2.2-9.4,2.4-13.9,2.5c-2.9,0.1-12.1,1-13.4-2.6c-2-6.1-11.7-3.5-9.6,2.7
			c4.5,13.5,26.3,11.2,37,8.1c17.6-5,20.6-25.8,19.3-41.5C191.4,361.6,181.4,361.6,181.9,368L181.9,368z"/>
	</g>
</g>
<g>
	<g>
		<path d="M161.2,366.8c-9.4,0.8-18-2.5-26.8-5.3c-9-3-18.1-5.6-27.3-8c-18.4-4.8-37-8.5-55.8-11.1c-6.3-0.9-9,8.7-2.7,9.6
			c19.4,2.7,38.7,6.6,57.7,11.6c9.2,2.4,18.3,5.2,27.3,8.1s18,5.9,27.6,5.1C167.6,376.3,167.7,366.3,161.2,366.8L161.2,366.8z"/>
	</g>
</g>
<g>
	<g>
		<path d="M148.8,381.3c-29.4,5.1-59.3,6.8-89,8.4c-6.4,0.4-6.4,10.4,0,10c30.7-1.7,61.4-3.6,91.7-8.8
			C157.8,389.8,155.1,380.2,148.8,381.3L148.8,381.3z"/>
	</g>
</g>
<g>
	<g>
		<path d="M142.2,373.7c-33.2-5.3-67.2-7.6-101-6.7c-8.3,0.2-8.4,10.2,0,10c32.8-0.9,65.4,1.2,97.6,6.3
			C146.8,384.7,150.3,375,142.2,373.7L142.2,373.7z"/>
	</g>
</g>
<g>
	<g>
		<path d="M217.5,377.6c27.4-5.7,54.3-13,80.8-21.8c6.1-2,3.5-11.7-2.7-9.6c-26.5,8.9-53.5,16.2-80.8,21.8
			C208.5,369.3,211.2,378.9,217.5,377.6L217.5,377.6z"/>
	</g>
</g>
<g>
	<g>
		<path d="M221.2,387.3c32.5-3.4,65.2-5.4,97.9-6c8-0.1,8.2-10.1,0-10c-32.8,0.6-65.4,2.6-97.9,6
			C213.3,378.1,213.3,388.1,221.2,387.3L221.2,387.3z"/>
	</g>
</g>
<g>
	<g>
		<path d="M209.6,395.5c3.7,5,8.8,5.2,14.5,5.9c7.7,0.8,15.5,1.6,23.2,2.2c15.5,1.3,31,2.2,46.6,2.7c6.5,0.2,6.4-9.8,0-10
			c-13-0.4-25.9-1.1-38.8-2.1c-6.5-0.5-12.9-1-19.4-1.7c-3.2-0.3-6.4-0.6-9.7-1c-1.4-0.1-6.9,0.1-7.8-1.1
			C214.5,385.3,205.8,390.3,209.6,395.5L209.6,395.5z"/>
	</g>
</g>
<g>
	<g>
		<path d="M182.1,456.8c8.2,27.9,39.1,34.1,64.3,35c30.4,1.1,61.4,1.3,91.2-5.7c24.9-5.8,48.3-17.9,65.9-36.7
			c16.5-17.6,29.2-44.9,21.8-69.2c-9.1-29.9-43.4-38.2-70.3-41.9c-34-4.7-68.7-9.2-102.6-1.4c-6.3,1.5-3.6,11.1,2.7,9.6
			c31.3-7.3,63.7-3.1,95.1,1.1c25,3.3,58.8,9.2,66.3,38c3.3,12.8-1.5,27.7-7.5,39.1c-5.7,10.7-13.9,19.8-23.2,27.6
			c-21.5,17.9-49.3,25.5-76.7,28.4c-22.6,2.3-45.7,2-68.4,0.8c-19-1-43-6.6-49.1-27.5C189.9,447.9,180.3,450.6,182.1,456.8
			L182.1,456.8z"/>
	</g>
</g>
<g>
	<g>
		<path fill="#231F20" d="M212.4,338.1c-1.4,2.8-4.5,4-7.4,2.9c-3-1.1-4.3,3.8-1.3,4.8c4.9,1.7,10.7-0.6,13.1-5.2
			C218.2,337.8,213.9,335.3,212.4,338.1L212.4,338.1z"/>
	</g>
</g>
<g>
	<g>
		<path fill="#231F20" d="M204.3,340c0-1.3,0-2.7,0-4c0-1.4-1.1-2.5-2.5-2.5s-2.5,1.1-2.5,2.5c0,1.3,0,2.7,0,4
			c0,1.4,1.1,2.5,2.5,2.5S204.3,341.4,204.3,340L204.3,340z"/>
	</g>
</g>
<g>
	<g>
		<path fill="#231F20" d="M203.8,333.8c0.7-1.6,2.2-2.1,3.9-1.7c2.2,0.5,3.3,3.3,3.8,5.2c0.8,3.1,5.6,1.8,4.8-1.3
			c-1-4-3.4-7.3-7.3-8.7c-3.5-1.3-8,0.7-9.5,4C198.2,334.2,202.6,336.8,203.8,333.8L203.8,333.8z"/>
	</g>
</g>
<g>
	<g>
		<path fill="#231F20" d="M207.3,341c3.2,0,3.2-5,0-5S204.1,341,207.3,341L207.3,341z"/>
	</g>
</g>
<g>
	<g>
		<path fill="#231F20" d="M177.3,342.5c0.1-0.4,0.2-0.7,0.3-1.1c-0.5-0.5-0.9-1.1-1.3-1.7c-0.6-0.9-1-2-1.4-3
			c-0.8-2.3-0.9-4.8-0.6-7.2c-0.6,0.8-1.2,1.6-1.8,2.4c2.5-0.8,6.8-2.4,7.8,1.3c0.6,2.1-0.1,4.9-1.8,6.3c-2.5,2.1,1.1,5.6,3.5,3.5
			c3.3-2.8,4.4-8.8,2.5-12.7c-2.7-5.4-8.6-4.8-13.5-3.2c-1.2,0.4-1.7,1.2-1.8,2.4c-0.6,5.2,0.8,10.8,4.2,14.9
			c2.8,3.2,8.6,3.4,8.7-1.8C182.4,339.2,177.4,339.3,177.3,342.5L177.3,342.5z"/>
	</g>
</g>
<g>
	<g>
		<path fill="#231F20" d="M178.8,339c3.2,0,3.2-5,0-5S175.6,339,178.8,339L178.8,339z"/>
	</g>
</g>
<g>
	<g>
		<path d="M536.5,241.6c2.9-8.1,3.7-17.5-4.6-22.4c-4-2.4-10.1-2.2-14.6-2.3c-6.1-0.1-12.2,0.8-18.1,2c-10.3,2-22.1,5.1-30.6,11.3
			c-8,5.8-11.1,15.3-12.8,24.6c-4.2,23.1-3.4,46.9-9.2,69.7c-2.6,10-6.6,19.4-12.4,27.8c-5.7,8.2-15.3,13.2-18.9,22.8
			c-2.2,6.1,7.4,8.7,9.6,2.7c1.4-3.8,4.8-6.3,7.7-8.9c3.1-2.7,5.8-5.7,8.3-9c5.1-6.7,8.9-14.1,11.9-22c6.8-17.5,8-36.6,9.6-55.1
			c0.9-10,1.8-20,3.9-29.8c2.1-9.5,7-15.3,16.1-18.8c9.3-3.6,19.3-6.1,29.3-7c4.9-0.4,10.1-0.4,14.9,0.7c4.4,1,1.2,8.7,0.3,11.2
			C524.6,245,534.3,247.6,536.5,241.6L536.5,241.6z"/>
	</g>
</g>
<g>
	<g>
		<path d="M171,575.5c5.7-12,11.3-24.1,17-36.1c5.1-10.8,9.9-21.4,11.2-33.3c2.6-23.6-10.6-45.7-10.7-69.1c0-6.4-10-6.4-10,0
			c0.1,22,10.8,42.2,11,64.1c0.1,11.9-5.1,22.8-10.1,33.3c-5.7,12-11.3,24.1-17,36.1C159.6,576.3,168.3,581.4,171,575.5L171,575.5z"
			/>
	</g>
</g>
<g>
	<g>
		<path d="M249.8,570.5c-1.1-0.4-1.9-5-2.3-6.1c-1.1-3.6-2.2-7.2-3.3-10.8c-2.1-7.3-4-14.6-5.5-22c-3-14.3-4.2-29.2-2-43.7
			c0.9-6.3-8.7-9-9.6-2.7c-2.5,17.1-1.1,34,2.4,50.9c1.8,8.6,4.2,17.1,6.8,25.6c2.1,7,3.4,15.6,11,18.5
			C253.2,582.5,255.8,572.8,249.8,570.5L249.8,570.5z"/>
	</g>
</g>
<g>
	<g>
		<path d="M352.5,476.4c-1.6,8.9-3.3,17.8-4.9,26.7c-1.5,8.2-4.9,18-3.2,26.4c1.5,7.7,6.1,14.8,10.1,21.4c4.6,7.6,10,14.8,15.7,21.6
			c4.1,5,11.2-2.2,7.1-7.1c-4.8-5.7-9.1-11.8-13.1-18c-3.8-6-9.4-13.6-10.1-20.9c-0.7-7.2,2.3-15.5,3.6-22.6
			c1.5-8.3,3.1-16.6,4.6-24.8C363.3,472.7,353.7,470,352.5,476.4L352.5,476.4z"/>
	</g>
</g>
<g>
	<g>
		<path d="M371.2,468.9c2.3,9.3,4.6,18.5,6.9,27.8c2,8,3.1,17.4,9.4,23.3c5.6,5.3,14.3,5.3,21.5,5.1c10.4-0.3,20.7,0.3,31,2.3
			c6.3,1.2,9-8.4,2.7-9.6c-8.1-1.5-16.2-2.5-24.4-2.7c-7-0.2-15.7,1.8-22.4-1.3c-3.5-1.6-4.5-5.5-5.5-8.9c-1.1-4.2-2.1-8.4-3.1-12.6
			c-2.1-8.6-4.3-17.3-6.4-25.9C379.3,460,369.6,462.6,371.2,468.9L371.2,468.9z"/>
	</g>
</g>
</svg>
