<?xml version="1.0" encoding="utf-8"?>
<!-- Generator: Adobe Illustrator 18.0.0, SVG Export Plug-In . SVG Version: 6.00 Build 0)  -->
<!DOCTYPE svg PUBLIC "-//W3C//DTD SVG 1.1//EN" "http://www.w3.org/Graphics/SVG/1.1/DTD/svg11.dtd">
<svg version="1.1" id="Layer_1" xmlns="http://www.w3.org/2000/svg" xmlns:xlink="http://www.w3.org/1999/xlink" x="0px" y="0px"
	 viewBox="0 0 612 792" enable-background="new 0 0 612 792" xml:space="preserve">
<g>
	<g>
		<path d="M322.1,477.8c5.5,4.3,8.5,13.8,12.5,20.2c4.5,7.2,9.7,13.8,15.2,19.8c11.7,12.4,25.2,21.5,39,27.8
			c15.4,7.2,31.2,11.2,47.1,14.2c12.6,2.4,33.8,2.2,34.5-19.1c0.1-6.2,7.7-5.3,7.5,0.7c-0.7,20.4-15.1,29-29.4,29.4
			c-8.6,0.3-17.7-2.2-26.3-4.2c-8.6-1.9-17.2-4.6-25.7-7.8c-15.9-6-31.5-15.3-45.4-28.1c-6.4-5.9-12.4-12.8-17.8-20.3
			c-2.8-3.9-5.4-8-7.8-12.3c-2.1-3.8-4-9.8-7.2-12.3C314.2,482.5,317.7,474.3,322.1,477.8L322.1,477.8z"/>
	</g>
</g>
<g>
	<g>
		<path d="M345.9,157c5.8,14.2,7.9,29.3,9,44.5c0.9,12.6,1,25.4-1.4,37.9c-2.3,12.1-7.3,23.4-16.3,32c-9,8.5-21.9,11.6-34,10.7
			c-29.7-2.3-42.6-34.3-45.5-59.8c-1.6-14.5-2.6-30.4,0.8-44.7c3.3-14.1,13.5-23.8,25.6-30.9c20.1-11.7,53.7-17.2,65.2,9
			c2.6,5.9,11.2,0.8,8.6-5c-4.9-11.1-15-18.4-26.3-22.1c-13.3-4.2-28.1-1.4-40.7,3.7c-12.2,4.9-23.8,12.2-32.2,22.5
			c-8.9,11-11.6,24.8-12.1,38.7c-1,27.7,2.4,58.2,20.9,80.1c16.4,19.4,44.1,23.5,66.3,12.2c20.7-10.5,28.8-33.9,31-55.5
			c1.2-12,0.6-24.1-0.5-36.1c-1.2-13.7-3.6-27.2-8.8-40C353.2,148.4,343.5,151,345.9,157L345.9,157z"/>
	</g>
</g>
<g>
	<g>
		<path d="M358.6,159.3c10.6-11.6,20.1-24,28.5-37.2c3.5-5.5-5.2-10.5-8.6-5c-8,12.5-17,24.3-27,35.2
			C347.2,157,354.3,164.1,358.6,159.3L358.6,159.3z"/>
	</g>
</g>
<g>
	<g>
		<path d="M391,98.8c-10.3,0.3-19.3,4.8-28.5,9.1c-10.7,5.1-21.5,10.1-32.2,15.2c-5.8,2.7-0.8,11.4,5,8.6
			c8.9-4.2,17.9-8.4,26.8-12.6c9.1-4.3,18.5-10,28.8-10.3C397.4,108.6,397.4,98.6,391,98.8L391,98.8z"/>
	</g>
</g>
<g>
	<g>
		<path d="M277.9,137.4c-12.1,1.6-23.4-1.7-34.6-5.9c-11.6-4.4-23.1-9.5-34.6-14.3c-3-1.2-6.5,1.8-6.3,4.8
			c0.6,12.2,8.5,24.4,14.8,34.6c6.2,10.1,14.4,19.2,25.2,24.3c5.8,2.7,10.9-5.9,5-8.6c-9.5-4.5-16.1-12.1-21.6-20.8
			c-2.8-4.3-5.2-8.9-7.5-13.4c-2.6-5.1-5.6-10.2-5.9-16.1c-2.1,1.6-4.2,3.2-6.3,4.8c11.5,4.8,23,9.8,34.6,14.3
			c11.8,4.6,24.5,8,37.2,6.3C284.2,146.6,284.3,136.6,277.9,137.4L277.9,137.4z"/>
	</g>
</g>
<g>
	<g>
		<path d="M307.9,222.6c1,11.9-1.9,25.4-10.3,34.4c-3.8,4.1-13.3,1.1-17.6-0.7c-5.7-2.4-10-7.4-9.9-13.7c0-6.5-10-6.4-10,0
			c-0.1,18.7,21,28.6,37.5,25.6c8.1-1.5,13.2-11.7,16-18.4c3.6-8.6,5.1-17.9,4.4-27.2C317.4,216.2,307.4,216.2,307.9,222.6
			L307.9,222.6z"/>
	</g>
</g>
<g>
	<g>
		<path d="M308,225.6c-1.3,15.9,1.6,34.5,18,41.1c6.8,2.7,15.1,2.5,22.3,2.2c6.9-0.4,13.7-2.8,16-9.8c2.1-6.1-7.6-8.7-9.6-2.7
			c-1.2,3.4-9.2,2.6-11.9,2.7c-4.8,0-9.5-0.4-14.1-1.9c-11.5-3.9-11.5-21.7-10.7-31.4C318.5,219.2,308.5,219.2,308,225.6L308,225.6z
			"/>
	</g>
</g>
<g>
	<g>
		<path d="M338.8,233.7c8.6,2.7,17.4,2.3,26.2,1.5c10.1-1,20.1-1.6,30.2-1.9c19.6-0.7,39.2-0.1,58.8,1.7c6.4,0.6,5.9-9.4-0.5-10
			c-18.9-1.7-37.9-2.3-56.9-1.8c-9.5,0.3-19,0.8-28.4,1.6c-9.2,0.7-18.3,2-27.3-0.9C334.9,222,332.7,231.8,338.8,233.7L338.8,233.7z
			"/>
	</g>
</g>
<g>
	<g>
		<path d="M345.1,249.6c28.3,11.9,57.8,20.7,87.4,29.2c6.1,1.8,8.4-7.9,2.3-9.7c-28.7-8.4-57.3-16.7-84.8-28.2
			C344,238.4,339.2,247.2,345.1,249.6L345.1,249.6z"/>
	</g>
</g>
<g>
	<g>
		<path d="M356.5,248.7c25.4,0.6,50.5,4.3,75.1,10.9c6.3,1.7,8.4-8.1,2.3-9.7c-25.4-6.8-51.5-10.5-77.7-11.1
			C349.7,238.5,350.2,248.6,356.5,248.7L356.5,248.7z"/>
	</g>
</g>
<g>
	<g>
		<path d="M281.8,224.5c-28,1.3-55.8,1-83.7-0.9c-6.4-0.5-6.5,9.5-0.2,10c27.9,2,55.9,2.3,83.7,0.9
			C288,234.3,288.2,224.3,281.8,224.5L281.8,224.5z"/>
	</g>
</g>
<g>
	<g>
		<path d="M279.1,234.9c-25.9,3.2-51.6,7.8-77,13.7c-6.3,1.5-3.7,11.2,2.5,9.7c25.4-6,51.1-10.5,77-13.7
			C287.9,243.8,285.4,234.1,279.1,234.9L279.1,234.9z"/>
	</g>
</g>
<g>
	<g>
		<path d="M284,247.2c-0.6,1.4-6,2.6-7.3,3c-3,1.1-6,2.3-9.1,3.4c-6.1,2.2-12.2,4.4-18.4,6.5c-12.2,4.2-24.7,8.1-37,11.7
			c-6.1,1.8-3.7,11.5,2.5,9.7c14.9-4.4,29.8-9.1,44.4-14.3c7.4-2.5,14.7-5.2,21.9-7.9c5.5-2,10.3-3.6,12.6-9.3
			C296.1,244,286.4,241.3,284,247.2L284,247.2z"/>
	</g>
</g>
<g>
	<g>
		<path d="M247.6,326.9c-6.1,6.3-8.9,14.6-11.5,23.1c-2.9,9.3-6.9,18-11.1,26.7c-8.4,17.5-17.5,34.6-31,48c-5,5,2.2,12.4,7.2,7.4
			c13-13.1,22.5-29.9,30.8-47c4.2-8.5,8.6-17,11.5-26.1c2.9-8.8,4.9-18.1,11.2-24.7C259.6,329.2,252.4,321.8,247.6,326.9
			L247.6,326.9z"/>
	</g>
</g>
<g>
	<g>
		<path d="M284,475.1c-0.9,12.6-5.2,24.8-10.7,37c-5.8,13-11.5,26-17.3,39c-2,4.4,7.8,5,9.8,0.7c5.6-12.6,11.1-25.1,16.7-37.7
			c5.6-12.8,10.3-25.2,11.3-38.3C294.1,471.3,284.4,470.6,284,475.1L284,475.1z"/>
	</g>
</g>
<g>
	<g>
		<path d="M341.6,472.3c2.9,30.5-4.5,61.9,8.1,90.9c2.5,5.9,11.2,0.8,8.6-5c-11.6-26.9-4-57.6-6.7-85.9
			C351,465.9,341,465.8,341.6,472.3L341.6,472.3z"/>
	</g>
</g>
<g>
	<g>
		<path fill="#231F20" d="M282.4,199.1c2.4,4.6,8.1,7,13.1,5.2c3-1.1,1.7-5.9-1.3-4.8c-2.9,1-6-0.1-7.4-2.9
			C285.3,193.8,281,196.3,282.4,199.1L282.4,199.1z"/>
	</g>
</g>
<g>
	<g>
		<path fill="#231F20" d="M299.9,198.5c0-1.3,0-2.7,0-4c0-1.4-1.1-2.5-2.5-2.5s-2.5,1.1-2.5,2.5c0,1.3,0,2.7,0,4
			c0,1.4,1.1,2.5,2.5,2.5S299.9,199.9,299.9,198.5L299.9,198.5z"/>
	</g>
</g>
<g>
	<g>
		<path fill="#231F20" d="M299.7,189.8c-1.4-3.3-5.5-5-8.9-4.2c-4.3,1-6.9,4.8-7.9,8.8c-0.8,3.1,4,4.4,4.8,1.3
			c0.5-2,1.4-3.8,3.2-4.9c1.7-1.1,3.8-0.2,4.5,1.5C296.6,195.3,300.9,192.7,299.7,189.8L299.7,189.8z"/>
	</g>
</g>
<g>
	<g>
		<path fill="#231F20" d="M291.9,199.5c3.2,0,3.2-5,0-5S288.6,199.5,291.9,199.5L291.9,199.5z"/>
	</g>
</g>
<g>
	<g>
		<path fill="#231F20" d="M316.9,201c0.1,5.3,6,5.1,8.7,1.8c3.5-4,4.8-9.7,4.2-14.9c-0.1-1.2-0.7-2-1.8-2.4
			c-4.8-1.6-10.8-2.1-13.5,3.2c-1.9,3.9-0.7,9.9,2.5,12.7c2.5,2.1,6-1.5,3.5-3.5c-1.8-1.5-2.1-4-1.8-6.3c0.5-3.8,5.7-2,7.8-1.3
			c-0.6-0.8-1.2-1.6-1.8-2.4c0.3,2.1,0.2,4.1-0.3,6.2c-0.3,1.1-0.7,2.1-1.2,3.1c-0.3,0.6-0.7,1.2-1,1.7c-0.8,0.5-1,1.2-0.4,2
			C321.8,197.7,316.8,197.7,316.9,201L316.9,201z"/>
	</g>
</g>
<g>
	<g>
		<path fill="#231F20" d="M320.4,197.5c3.2,0,3.2-5,0-5S317.1,197.5,320.4,197.5L320.4,197.5z"/>
	</g>
</g>
<path fill="none" stroke="#231F20" stroke-width="10" stroke-miterlimit="10" d="M379.9,363.2c11.6,57.1-4.3,118.7-71,116
	c-72.9-3-77.1-55.1-63.3-114.8c12.1-51.9,17.1-76.4,65.6-76.4S369.2,310.7,379.9,363.2z"/>
<g>
	<g>
		<path d="M377.4,333.5c5.7,6.6,8.2,15,10.5,23.5c2.6,9.4,6.2,18.2,10,27.1c7.6,17.9,16,35.2,28.6,49.2c4.7,5.2-2.5,12.3-7.2,7.1
			c-12.3-13.6-20.9-30.7-28.5-48.1c-3.8-8.6-7.8-17.4-10.4-26.5c-2.6-8.9-4.2-18.2-10.2-25.1C365.7,335.4,372.9,328.3,377.4,333.5
			L377.4,333.5z"/>
	</g>
</g>
</svg>
