<?xml version="1.0" encoding="utf-8"?>
<!-- Generator: Adobe Illustrator 18.0.0, SVG Export Plug-In . SVG Version: 6.00 Build 0)  -->
<!DOCTYPE svg PUBLIC "-//W3C//DTD SVG 1.1//EN" "http://www.w3.org/Graphics/SVG/1.1/DTD/svg11.dtd">
<svg version="1.1" id="Layer_1" xmlns="http://www.w3.org/2000/svg" xmlns:xlink="http://www.w3.org/1999/xlink" x="0px" y="0px"
	 viewBox="0 0 612 792" enable-background="new 0 0 612 792" xml:space="preserve">
<g>
	<g>
		<path d="M144.3,296.7c-5.6,13.9-7.9,28.7-9.1,43.6c-1,12.7-1.3,25.6,0.5,38.3c3.5,24.4,16.2,46.5,40.9,54
			c25.1,7.6,49.6-4.9,62.9-26.3c7.4-12,10.6-25.9,12.4-39.7c1.8-14.5,2.3-29.6,0.1-44.1c-3.9-26.1-26.1-42.3-49.7-50.1
			c-21.8-7.2-50.3-2.2-60.4,20.8c-2.6,5.8,6,10.9,8.6,5c5.2-11.9,17-18.2,29.6-19c14.5-0.9,29.1,5.5,41,13.4
			c12.4,8.1,19.6,20.1,21.5,34.8c1.9,14.7,0.8,30.6-1.7,45.2c-4.4,26.3-20.8,52.5-50.2,52.3c-12.5-0.1-24-5.8-32.2-15.1
			c-8.1-9.2-11.7-21.9-13.2-33.8c-1.5-11.8-1-23.7-0.1-35.5c1.1-14,3.4-27.9,8.7-40.9C156.4,293.4,146.7,290.8,144.3,296.7
			L144.3,296.7z"/>
	</g>
</g>
<g>
	<g>
		<path d="M148.3,294.7c-10-11-19-22.7-27-35.2c-3.5-5.4-12.1-0.4-8.6,5c8.4,13.2,18,25.7,28.5,37.2
			C145.6,306.5,152.7,299.4,148.3,294.7L148.3,294.7z"/>
	</g>
</g>
<g>
	<g>
		<path d="M108.9,251.2c9.7,0.3,18.4,5.4,27,9.4c9.5,4.5,19.1,9,28.6,13.5c5.8,2.7,10.9-5.9,5-8.6c-10.1-4.8-20.3-9.6-30.4-14.3
			c-9.7-4.6-19.3-9.6-30.2-10C102.5,241,102.5,251,108.9,251.2L108.9,251.2z"/>
	</g>
</g>
<g>
	<g>
		<path d="M222,289.8c12.2,1.6,24.1-1.4,35.5-5.6c12.3-4.5,24.3-10,36.3-15c-2.1-1.6-4.2-3.2-6.3-4.8c-0.3,5.9-3.3,11-5.9,16.1
			c-2.3,4.6-4.8,9.1-7.5,13.4c-5.4,8.7-12.2,16.3-21.6,20.8c-5.8,2.8-0.7,11.4,5,8.6c10.9-5.2,18.8-14.3,25.2-24.3
			c6.4-10,14.2-22.4,14.8-34.6c0.1-3-3.4-6.1-6.3-4.8c-10.9,4.6-21.8,9.2-32.8,13.6c-11.6,4.7-23.7,8.3-36.3,6.6
			C215.7,279,215.7,289,222,289.8L222,289.8z"/>
	</g>
</g>
<g>
	<g>
		<path d="M182,365c-0.7,9.3,0.8,18.6,4.4,27.2c3.2,7.6,7.8,15.7,16,18.4c7.8,2.6,18.8-1,25.5-4.9c7.3-4.2,12-12.3,12-20.8
			c0-6.4-10-6.5-10,0c0,6.6-4.4,10.9-9.9,13.7c-4.5,2.2-13.5,4.4-17.6,0.7c-8.8-7.9-11.2-23.3-10.3-34.4
			C192.5,358.6,182.5,358.6,182,365L182,365z"/>
	</g>
</g>
<g>
	<g>
		<path d="M181.9,368c0.8,10.1,0.7,25.3-9.4,30.9c-4.1,2.2-9.4,2.4-13.9,2.5c-2.9,0.1-12.1,1-13.4-2.6c-2-6.1-11.7-3.5-9.6,2.7
			c4.5,13.5,26.3,11.2,37,8.1c17.6-5,20.6-25.8,19.3-41.5C191.4,361.6,181.4,361.6,181.9,368L181.9,368z"/>
	</g>
</g>
<g>
	<g>
		<path d="M161.2,366.8c-9.4,0.8-18-2.5-26.8-5.3c-9-3-18.1-5.6-27.3-8c-18.4-4.8-37-8.5-55.8-11.1c-6.3-0.9-9,8.7-2.7,9.6
			c19.4,2.7,38.7,6.6,57.7,11.6c9.2,2.4,18.3,5.2,27.3,8.1s18,5.9,27.6,5.1C167.6,376.3,167.7,366.3,161.2,366.8L161.2,366.8z"/>
	</g>
</g>
<g>
	<g>
		<path d="M148.8,381.3c-29.4,5.1-59.3,6.8-89,8.4c-6.4,0.4-6.4,10.4,0,10c30.7-1.7,61.4-3.6,91.7-8.8
			C157.8,389.8,155.1,380.2,148.8,381.3L148.8,381.3z"/>
	</g>
</g>
<g>
	<g>
		<path d="M143.2,377.7c-25.7-5.3-52-7.6-78.2-6.7c-6.4,0.2-6.5,10.2,0,10c25.4-0.9,50.7,1.2,75.6,6.3
			C146.8,388.7,149.5,379,143.2,377.7L143.2,377.7z"/>
	</g>
</g>
<g>
	<g>
		<path d="M217.5,377.6c27.4-5.7,54.3-13,80.8-21.8c6.1-2,3.5-11.7-2.7-9.6c-26.5,8.9-53.5,16.2-80.8,21.8
			C208.5,369.3,211.2,378.9,217.5,377.6L217.5,377.6z"/>
	</g>
</g>
<g>
	<g>
		<path d="M220,387.3c25.9-3.4,51.9-5.4,78-6c6.4-0.1,6.5-10.1,0-10c-26.1,0.6-52.1,2.6-78,6C213.7,378.1,213.7,388.1,220,387.3
			L220,387.3z"/>
	</g>
</g>
<g>
	<g>
		<path d="M209.6,395.5c3.7,5,8.8,5.2,14.5,5.9c7.7,0.8,15.5,1.6,23.2,2.2c15.5,1.3,31,2.2,46.6,2.7c6.5,0.2,6.4-9.8,0-10
			c-13-0.4-25.9-1.1-38.8-2.1c-6.5-0.5-12.9-1-19.4-1.7c-3.2-0.3-6.4-0.6-9.7-1c-1.4-0.1-6.9,0.1-7.8-1.1
			C214.5,385.3,205.8,390.3,209.6,395.5L209.6,395.5z"/>
	</g>
</g>
<g>
	<g>
		<path d="M189.3,437.4c-3.5,23-5.5,46.7-4.4,70.1c0.5,11.6,4.8,21.4,9.7,31.2c4.9,9.6,10.3,18.8,16.4,27.6c3.5,5-2.7,12.1-6.2,7.1
			c-12.3-17.9-26-38.9-28.4-62.2c-1.3-12.5-0.4-25.7,0.3-38.2c0.8-12.8,2.3-25.5,4.2-38.1C181.9,428.4,190.2,431.1,189.3,437.4
			L189.3,437.4z"/>
	</g>
</g>
<g>
	<g>
		<path d="M208.2,480.2c-4,6.8-4,15.2-4.9,23.1c-0.9,8.3-3,16.4-4.9,24.4c-3.8,16.1-8.6,32.2-17,45.7c-3.2,5.1-10.5,0.1-7.2-5
			c8.6-13.9,13.1-30.1,17-46.6c1.9-8.2,3.7-16.3,4.4-24.8c0.7-7.7,1.6-15.4,5.4-21.8C204.1,469.9,211.3,474.9,208.2,480.2
			L208.2,480.2z"/>
	</g>
</g>
<g>
	<g>
		<path d="M182.1,456.8c8.2,27.9,39.1,34.1,64.3,35c30.4,1.1,61.4,1.3,91.2-5.7c24.9-5.8,48.3-17.9,65.9-36.7
			c16.5-17.6,29.2-44.9,21.8-69.2c-9.1-29.9-43.4-38.2-70.3-41.9c-34-4.7-68.7-9.2-102.6-1.4c-6.3,1.5-3.6,11.1,2.7,9.6
			c31.3-7.3,63.7-3.1,95.1,1.1c25,3.3,58.8,9.2,66.3,38c3.3,12.8-1.5,27.7-7.5,39.1c-5.7,10.7-13.9,19.8-23.2,27.6
			c-21.5,17.9-49.3,25.5-76.7,28.4c-22.6,2.3-45.7,2-68.4,0.8c-19-1-43-6.6-49.1-27.5C189.9,447.9,180.3,450.6,182.1,456.8
			L182.1,456.8z"/>
	</g>
</g>
<g>
	<g>
		<path d="M423.8,383.6c2-3.8,7.2-5.8,10.6-8.2c4.2-2.9,8.2-6.2,12-9.7c7.3-6.6,13.7-14.4,19.3-22.5c12.2-17.6,19.8-38.1,24.7-58.8
			c2.6-11.2,4.3-22.5,5.6-33.9c1.3-11.5,2.5-23.2,1.9-34.8c-1-19.5-12-40.2-33.4-42c-6.4-0.5-6.4,9.5,0,10
			c21.4,1.8,24.1,28.5,23.3,44.9c-1,20.9-3.9,41.9-9.4,62c-5,18.5-12.9,35.9-24.2,51.4c-5.3,7.3-11.6,13.9-18.5,19.7
			c-3.7,3.1-7.7,5.9-11.8,8.4c-3.6,2.2-6.9,4.5-8.9,8.4C412.3,384.3,420.9,389.4,423.8,383.6L423.8,383.6z"/>
	</g>
</g>
<g>
	<g>
		<path d="M384.8,466.2c-2.5,17.9-8.3,34.5-15.4,51.1c-7.5,17.6-14.9,35.2-22.4,52.8c-2.5,5.9-12.4,3.3-9.9-2.7
			c7.2-17,14.4-34,21.6-51c7.3-17.3,13.6-34.3,16.1-52.9C375.8,457.2,385.6,459.9,384.8,466.2L384.8,466.2z"/>
	</g>
</g>
<g>
	<g>
		<path d="M349.5,478c2.7,28.3-4.9,59,6.7,85.9c2.5,5.9-6.1,11-8.6,5c-12.5-29-5.1-60.4-8.1-90.9C339,471.5,348.9,471.6,349.5,478
			L349.5,478z"/>
	</g>
</g>
<g>
	<g>
		<path fill="#231F20" d="M212.4,338.1c-1.4,2.8-4.5,4-7.4,2.9c-3-1.1-4.3,3.8-1.3,4.8c4.9,1.7,10.7-0.6,13.1-5.2
			C218.2,337.8,213.9,335.3,212.4,338.1L212.4,338.1z"/>
	</g>
</g>
<g>
	<g>
		<path fill="#231F20" d="M204.3,340c0-1.3,0-2.7,0-4c0-1.4-1.1-2.5-2.5-2.5s-2.5,1.1-2.5,2.5c0,1.3,0,2.7,0,4
			c0,1.4,1.1,2.5,2.5,2.5S204.3,341.4,204.3,340L204.3,340z"/>
	</g>
</g>
<g>
	<g>
		<path fill="#231F20" d="M203.8,333.8c0.7-1.6,2.2-2.1,3.9-1.7c2.2,0.5,3.3,3.3,3.8,5.2c0.8,3.1,5.6,1.8,4.8-1.3
			c-1-4-3.4-7.3-7.3-8.7c-3.5-1.3-8,0.7-9.5,4C198.2,334.2,202.6,336.8,203.8,333.8L203.8,333.8z"/>
	</g>
</g>
<g>
	<g>
		<path fill="#231F20" d="M207.3,341c3.2,0,3.2-5,0-5S204.1,341,207.3,341L207.3,341z"/>
	</g>
</g>
<g>
	<g>
		<path fill="#231F20" d="M177.3,342.5c0.1-0.4,0.2-0.7,0.3-1.1c-0.5-0.5-0.9-1.1-1.3-1.7c-0.6-0.9-1-2-1.4-3
			c-0.8-2.3-0.9-4.8-0.6-7.2c-0.6,0.8-1.2,1.6-1.8,2.4c2.5-0.8,6.8-2.4,7.8,1.3c0.6,2.1-0.1,4.9-1.8,6.3c-2.5,2.1,1.1,5.6,3.5,3.5
			c3.3-2.8,4.4-8.8,2.5-12.7c-2.7-5.4-8.6-4.8-13.5-3.2c-1.2,0.4-1.7,1.2-1.8,2.4c-0.6,5.2,0.8,10.8,4.2,14.9
			c2.8,3.2,8.6,3.4,8.7-1.8C182.4,339.2,177.4,339.3,177.3,342.5L177.3,342.5z"/>
	</g>
</g>
<g>
	<g>
		<path fill="#231F20" d="M178.8,339c3.2,0,3.2-5,0-5S175.6,339,178.8,339L178.8,339z"/>
	</g>
</g>
</svg>
