<?xml version="1.0" encoding="utf-8"?>
<!-- Generator: Adobe Illustrator 18.0.0, SVG Export Plug-In . SVG Version: 6.00 Build 0)  -->
<!DOCTYPE svg PUBLIC "-//W3C//DTD SVG 1.1//EN" "http://www.w3.org/Graphics/SVG/1.1/DTD/svg11.dtd">
<svg version="1.1" id="Layer_1" xmlns="http://www.w3.org/2000/svg" xmlns:xlink="http://www.w3.org/1999/xlink" x="0px" y="0px"
	 viewBox="0 0 612 792" enable-background="new 0 0 612 792" xml:space="preserve">
<g>
	<g>
		<path d="M389.2,299.4c5.8,14.2,7.9,29.3,9,44.5c0.9,12.6,1,25.4-1.4,37.9c-2.3,12.1-7.3,23.4-16.3,32c-9,8.5-21.9,11.6-34,10.7
			c-29.7-2.3-42.6-34.3-45.5-59.8c-1.6-14.5-2.6-30.4,0.8-44.7c3.3-14.1,13.5-23.8,25.6-30.9c20.1-11.7,53.7-17.2,65.2,9
			c2.6,5.9,11.2,0.8,8.6-5c-4.9-11.1-15-18.4-26.3-22.1c-13.3-4.2-28.1-1.4-40.7,3.7c-12.2,4.9-23.8,12.2-32.2,22.5
			c-8.9,11-11.6,24.8-12.1,38.7c-1,27.7,2.4,58.2,20.9,80.1c16.4,19.4,44.1,23.5,66.3,12.2c20.7-10.5,28.8-33.9,31-55.5
			c1.2-12,0.6-24.1-0.5-36.1c-1.2-13.7-3.6-27.2-8.8-40C396.5,290.8,386.8,293.4,389.2,299.4L389.2,299.4z"/>
	</g>
</g>
<g>
	<g>
		<path d="M401.9,301.7c10.6-11.6,20.1-24,28.5-37.2c3.5-5.5-5.2-10.5-8.6-5c-8,12.5-17,24.3-27,35.2
			C390.5,299.4,397.6,306.5,401.9,301.7L401.9,301.7z"/>
	</g>
</g>
<g>
	<g>
		<path d="M434.3,241.2c-10.3,0.3-19.3,4.8-28.5,9.1c-10.7,5.1-21.5,10.1-32.2,15.2c-5.8,2.7-0.8,11.4,5,8.6
			c8.9-4.2,17.9-8.4,26.8-12.6c9.1-4.3,18.5-10,28.8-10.3C440.7,251,440.7,241,434.3,241.2L434.3,241.2z"/>
	</g>
</g>
<g>
	<g>
		<path d="M321.2,279.8c-12.1,1.6-23.4-1.7-34.6-5.9c-11.6-4.4-23.1-9.5-34.6-14.3c-3-1.2-6.5,1.8-6.3,4.8
			c0.6,12.2,8.5,24.4,14.8,34.6c6.2,10.1,14.4,19.2,25.2,24.3c5.8,2.7,10.9-5.9,5-8.6c-9.5-4.5-16.1-12.1-21.6-20.8
			c-2.8-4.3-5.2-8.9-7.5-13.4c-2.6-5.1-5.6-10.2-5.9-16.1c-2.1,1.6-4.2,3.2-6.3,4.8c11.5,4.8,23,9.8,34.6,14.3
			c11.8,4.6,24.5,8,37.2,6.3C327.5,289,327.6,279,321.2,279.8L321.2,279.8z"/>
	</g>
</g>
<g>
	<g>
		<path d="M351.2,365c1,11.9-1.9,25.4-10.3,34.4c-3.8,4.1-13.3,1.1-17.6-0.7c-5.7-2.4-10-7.4-9.9-13.7c0-6.5-10-6.4-10,0
			c-0.1,18.7,21,28.6,37.5,25.6c8.1-1.5,13.2-11.7,16-18.4c3.6-8.6,5.1-17.9,4.4-27.2C360.7,358.6,350.7,358.6,351.2,365L351.2,365z
			"/>
	</g>
</g>
<g>
	<g>
		<path d="M351.3,368c-1.3,15.9,1.6,34.5,18,41.1c6.8,2.7,15.1,2.5,22.3,2.2c6.9-0.4,13.7-2.8,16-9.8c2.1-6.1-7.6-8.7-9.6-2.7
			c-1.2,3.4-9.2,2.6-11.9,2.7c-4.8,0-9.5-0.4-14.1-1.9c-11.5-3.9-11.5-21.7-10.7-31.4C361.8,361.6,351.8,361.6,351.3,368L351.3,368z
			"/>
	</g>
</g>
<g>
	<g>
		<path d="M382,376.8c9,0.7,17.5-1.7,25.9-4.5c9.6-3.2,19.2-6.1,29-8.7c18.9-5.1,38.2-8.9,57.7-11.6c6.4-0.9,3.6-10.5-2.7-9.6
			c-18.8,2.6-37.4,6.3-55.8,11.1c-9.2,2.4-18.3,5.1-27.3,8c-8.8,2.8-17.4,6.1-26.8,5.3C375.5,366.3,375.6,376.3,382,376.8L382,376.8
			z"/>
	</g>
</g>
<g>
	<g>
		<path d="M391.7,390.9c30.3,5.2,61,7.1,91.7,8.8c6.4,0.4,6.4-9.6,0-10c-29.8-1.7-59.6-3.4-89-8.4
			C388.1,380.2,385.4,389.8,391.7,390.9L391.7,390.9z"/>
	</g>
</g>
<g>
	<g>
		<path d="M402.6,387.4c24.9-5.1,50.2-7.2,75.6-6.3c6.5,0.2,6.4-9.8,0-10c-26.3-0.9-52.5,1.4-78.2,6.7
			C393.7,379,396.4,388.7,402.6,387.4L402.6,387.4z"/>
	</g>
</g>
<g>
	<g>
		<path d="M328.4,367.9c-27.4-5.7-54.3-13-80.8-21.8c-6.1-2.1-8.7,7.6-2.7,9.6c26.5,8.9,53.5,16.2,80.8,21.8
			C332,378.9,334.7,369.3,328.4,367.9L328.4,367.9z"/>
	</g>
</g>
<g>
	<g>
		<path d="M323.2,377.3c-25.9-3.4-51.9-5.4-78-6c-6.5-0.1-6.4,9.9,0,10c26.1,0.6,52.1,2.6,78,6C329.5,388.1,329.5,378.1,323.2,377.3
			L323.2,377.3z"/>
	</g>
</g>
<g>
	<g>
		<path d="M324.9,390.4c-0.9,1.2-6.5,1-7.8,1.1c-3.2,0.3-6.4,0.7-9.7,1c-6.5,0.6-12.9,1.2-19.4,1.7c-12.9,1-25.9,1.7-38.8,2.1
			c-6.4,0.2-6.5,10.2,0,10c15.5-0.5,31.1-1.4,46.6-2.7c7.8-0.6,15.5-1.4,23.2-2.2c5.8-0.6,10.9-0.9,14.5-5.9
			C337.4,390.3,328.7,385.3,324.9,390.4L324.9,390.4z"/>
	</g>
</g>
<g>
	<g>
		<path d="M356.4,434.7c-4.3,24.8-7.6,51.2-5.2,76.4c1.1,12,6.3,22.3,12.3,32.6c6,10.4,13,20.2,20.4,29.6c4,5.1,11-2.1,7.1-7.1
			c-6.9-8.7-13.2-18-18.9-27.6c-5.9-9.9-10.4-19.6-11.2-31.2c-1.7-23.1,1.1-47.3,5.1-70.1C367.1,431.1,357.5,428.4,356.4,434.7
			L356.4,434.7z"/>
	</g>
</g>
<g>
	<g>
		<path d="M330.7,475.1c-4.6,6.5-5.6,14.1-6.4,21.8c-0.9,8.5-3,16.6-5.3,24.8c-4.5,16.5-9.9,32.7-20.2,46.6c-3.8,5.2,4.8,10.2,8.6,5
			c10-13.6,15.7-29.6,20.3-45.7c2.3-8,4.8-16.1,5.8-24.4c1-8,1-16.3,5.8-23.1C343,474.9,334.4,469.9,330.7,475.1L330.7,475.1z"/>
	</g>
</g>
<g>
	<g>
		<path d="M351.5,454.1c-8.8,29.8-48.8,27.8-73.2,28.1c-30.5,0.5-61.6-0.9-90.3-12c-22.6-8.7-43.1-25.1-54.4-46.7
			c-6.1-11.6-9.8-26.3-6.4-39.3c3.2-12.2,13.8-21,24.5-26.5c9.4-4.8,20.2-6.9,30.5-8.5c11.8-1.9,23.7-3.3,35.5-4.6
			c23.5-2.6,47.3-3.4,70.5,2c6.3,1.5,8.9-8.2,2.7-9.6c-31-7.2-62.8-3.9-94,0.2c-26.7,3.5-55,7.5-72.4,30.3c-16,21-7.2,51,6.4,70.8
			c13.7,20,34.7,34.2,57.2,42.5c31.6,11.7,66.3,11.9,99.5,11.1c27.6-0.6,64.2-3.6,73.6-35.3C362.9,450.6,353.3,447.9,351.5,454.1
			L351.5,454.1z"/>
	</g>
</g>
<g>
	<g>
		<path d="M128,378.6c-3.8-7.3-13.3-10.8-19.5-15.8c-7-5.7-13.3-12.3-18.8-19.5c-11.6-15.1-19.4-32.7-24.6-50.9
			c-5.9-20.1-8.4-41.1-9.8-62c-1.1-16.7,1.1-44.9,23.2-46.7c6.4-0.5,6.4-10.5,0-10c-21,1.8-31.3,21.3-33.2,40.2
			c-1.1,11.5,0.4,23.4,1.6,34.8c1.2,11.4,3,22.7,5.4,33.9c4.6,20.9,12.4,41.3,24.2,59.3c5.4,8.3,11.9,15.9,19,22.8
			c3.7,3.6,7.8,6.8,11.9,9.8c3.7,2.7,9.7,4.9,11.9,9.1C122.3,389.4,131,384.3,128,378.6L128,378.6z"/>
	</g>
</g>
<g>
	<g>
		<path d="M150.6,463.5c-2.4,17.9-8.1,34.5-15,51.1c-7.3,17.6-14.5,35.2-21.8,52.8c-2.5,6,7.2,8.5,9.6,2.7c7-17,14-34,21-51
			c7.1-17.3,13.2-34.3,15.7-52.9C161.1,459.9,151.5,457.2,150.6,463.5L150.6,463.5z"/>
	</g>
</g>
<g>
	<g>
		<path d="M176.7,477c2.9,30.5-4.5,61.9,8.1,90.9c2.5,5.9,11.2,0.8,8.6-5c-11.6-26.9-4-57.6-6.7-85.9
			C186.1,470.6,176.1,470.5,176.7,477L176.7,477z"/>
	</g>
</g>
<g>
	<g>
		<path fill="#231F20" d="M325.7,341.5c2.4,4.6,8.1,7,13.1,5.2c3-1.1,1.7-5.9-1.3-4.8c-2.9,1-6-0.1-7.4-2.9
			C328.6,336.2,324.3,338.7,325.7,341.5L325.7,341.5z"/>
	</g>
</g>
<g>
	<g>
		<path fill="#231F20" d="M343.2,340.9c0-1.3,0-2.7,0-4c0-1.4-1.1-2.5-2.5-2.5s-2.5,1.1-2.5,2.5c0,1.3,0,2.7,0,4
			c0,1.4,1.1,2.5,2.5,2.5S343.2,342.3,343.2,340.9L343.2,340.9z"/>
	</g>
</g>
<g>
	<g>
		<path fill="#231F20" d="M343,332.2c-1.4-3.3-5.5-5-8.9-4.2c-4.3,1-6.9,4.8-7.9,8.8c-0.8,3.1,4,4.4,4.8,1.3c0.5-2,1.4-3.8,3.2-4.9
			c1.7-1.1,3.8-0.2,4.5,1.5C339.9,337.7,344.2,335.1,343,332.2L343,332.2z"/>
	</g>
</g>
<g>
	<g>
		<path fill="#231F20" d="M335.2,341.9c3.2,0,3.2-5,0-5S331.9,341.9,335.2,341.9L335.2,341.9z"/>
	</g>
</g>
<g>
	<g>
		<path fill="#231F20" d="M360.2,343.4c0.1,5.3,6,5.1,8.7,1.8c3.5-4,4.8-9.7,4.2-14.9c-0.1-1.2-0.7-2-1.8-2.4
			c-4.8-1.6-10.8-2.1-13.5,3.2c-1.9,3.9-0.7,9.9,2.5,12.7c2.5,2.1,6-1.5,3.5-3.5c-1.8-1.5-2.1-4-1.8-6.3c0.5-3.8,5.7-2,7.8-1.3
			c-0.6-0.8-1.2-1.6-1.8-2.4c0.3,2.1,0.2,4.1-0.3,6.2c-0.3,1.1-0.7,2.1-1.2,3.1c-0.3,0.6-0.7,1.2-1,1.7c-0.8,0.5-1,1.2-0.4,2
			C365.1,340.1,360.1,340.1,360.2,343.4L360.2,343.4z"/>
	</g>
</g>
<g>
	<g>
		<path fill="#231F20" d="M363.7,339.9c3.2,0,3.2-5,0-5S360.4,339.9,363.7,339.9L363.7,339.9z"/>
	</g>
</g>
</svg>
